# xmcd
#
# Track frame offsets:
#	150
#	17620
#	40087
#	68335
#	89965
#	109192
#	139755
#	165115
#	191935
#	214370
#	231952
#	256460
#
# Disc length: 3424 seconds
#
# Revision: 2
# Processed by: cddbd v1.5.2PL0 Copyright (c) Steve Scherf et al.
# Submitted via: audiograbber 1.83.01
#
DISCID=a70d5e0c
DTITLE=Washington, Walter 'Wolfman' and The Roadmasters - Funk is in the house
DYEAR=1997
DGENRE=Blues
TTITLE0=Trials and tribulations
TTITLE1=Funkyard
TTITLE2=I stand accused
TTITLE3=Mary Ann
TTITLE4=Please come back to me
TTITLE5=Wolf funk
TTITLE6=When the answer is clear
TTITLE7=Close the door
TTITLE8=The big easy
TTITLE9=I'm in love
TTITLE10=Funk is in the house
TTITLE11=Cousin Joe
EXTD=
EXTT0=
EXTT1=
EXTT2=
EXTT3=
EXTT4=
EXTT5=
EXTT6=
EXTT7=
EXTT8=
EXTT9=
EXTT10=
EXTT11=
PLAYORDER=
